#Comment line ignore any data following # character 
#Hierarchical Translation and Rotation (.htr) file 
[Header]	
#Header keywords are followed by a single value 
FileType HTR		#Single word string
DataType HTRS		#Translation followed by rotation and scale data
FileVersion 1		#integer
NumSegments 84		#integer
NumFrames 2		#integer
DataFrameRate 30		#integer, data frame rate in this file
EulerRotationOrder ZYX
CalibrationUnits mm
RotationUnits Degrees
GlobalAxisofGravity Y
BoneLengthAxis Y
ScaleFactor 1.00
[SegmentNames&Hierarchy]
#CHILD	PARENT
MASTER GLOBAL
root MASTER
chest root
L_mid_tent01 root
R_mid_tent01 root
spine01 root
Bip01_Neck chest
L_humerus chest
R_humerus chest
weapon_bone chest
Bip01_Head Bip01_Neck
eye_left_bone Bip01_Head
eye_right_bone Bip01_Head
L_forearm L_humerus
L_front_hand L_forearm
L_weapon_bone L_forearm
L_front_hand01_01 L_front_hand
L_front_hand02_01 L_front_hand
L_front_hand03_01 L_front_hand
L_front_hand01_02 L_front_hand01_01
L_front_hand02_02 L_front_hand02_01
L_front_hand03_02 L_front_hand03_01
R_forearm R_humerus
R_front_hand R_forearm
R_weapon_bone R_forearm
R_front_hand01_01 R_front_hand
R_front_hand02_01 R_front_hand
R_front_hand03_01 R_front_hand
R_front_hand01_02 R_front_hand01_01
R_front_hand02_02 R_front_hand02_01
R_front_hand03_02 R_front_hand03_01
null_rope01_connect L_mid_tent01
Rope1_Seg01 null_rope01_connect
Rope1_Seg02 Rope1_Seg01
Rope1_Seg03 Rope1_Seg02
Rope1_Seg04 Rope1_Seg03
Rope1_Seg05 Rope1_Seg04
Rope1_Seg06 Rope1_Seg05
Rope1_Seg07 Rope1_Seg06
Rope1_Seg09 Rope1_Seg07
L_mid_hand01 Rope1_Seg09
L_mid_hand02 Rope1_Seg09
L_mid_hand03 Rope1_Seg09
null_rope02_connect R_mid_tent01
Rope2_Seg01 null_rope02_connect
Rope2_Seg02 Rope2_Seg01
Rope2_Seg03 Rope2_Seg02
Rope2_Seg04 Rope2_Seg03
Rope2_Seg05 Rope2_Seg04
Rope2_Seg06 Rope2_Seg05
Rope2_Seg07 Rope2_Seg06
Rope2_Seg09 Rope2_Seg07
R_mid_hand01 Rope2_Seg09
R_mid_hand02 Rope2_Seg09
R_mid_hand03 Rope2_Seg09
spine02 spine01
spine03 spine02
pelvis spine03
null_rope03_connect pelvis
null_rope04_connect pelvis
Rope3_Seg01 null_rope03_connect
Rope3_Seg02 Rope3_Seg01
Rope3_Seg03 Rope3_Seg02
Rope3_Seg04 Rope3_Seg03
Rope3_Seg05 Rope3_Seg04
Rope3_Seg06 Rope3_Seg05
Rope3_Seg07 Rope3_Seg06
Rope3_Seg08 Rope3_Seg07
Rope3_Seg09 Rope3_Seg08
R_rear_hand01 Rope3_Seg09
R_rear_hand02 Rope3_Seg09
R_rear_hand03 Rope3_Seg09
Rope4_Seg01 null_rope04_connect
Rope4_Seg02 Rope4_Seg01
Rope4_Seg03 Rope4_Seg02
Rope4_Seg04 Rope4_Seg03
Rope4_Seg05 Rope4_Seg04
Rope4_Seg06 Rope4_Seg05
Rope4_Seg07 Rope4_Seg06
Rope4_Seg08 Rope4_Seg07
Rope4_Seg09 Rope4_Seg08
L_rear_hand01 Rope4_Seg09
L_rear_hand02 Rope4_Seg09
L_rear_hand03 Rope4_Seg09
[BasePosition]
#SegmentName Tx, Ty, Tz, Rx, Ry, Rz, BoneLength
MASTER 0.000000 0.000000 0.000000 -90.000000 0.000000 0.000000 10.000000 
root 0.000000 0.000000 0.000000 0.000000 0.000000 0.000000 10.000000 
chest 0.000000 0.000000 0.000000 0.000000 0.000000 0.000000 10.000000 
L_mid_tent01 0.000000 0.000000 0.000000 0.000000 0.000000 0.000000 10.000000 
R_mid_tent01 0.000000 0.000000 0.000000 0.000000 0.000000 0.000000 10.000000 
spine01 0.000000 0.000000 0.000000 0.000000 0.000000 0.000000 10.000000 
Bip01_Neck 0.000000 0.000000 0.000000 0.000000 0.000000 0.000000 10.000000 
L_humerus 0.000000 0.000000 0.000000 0.000000 0.000000 0.000000 10.000000 
R_humerus 0.000000 0.000000 0.000000 0.000000 0.000000 0.000000 10.000000 
weapon_bone 0.000000 0.000000 0.000000 0.000000 0.000000 0.000000 10.000000 
Bip01_Head 0.000000 0.000000 0.000000 0.000000 0.000000 0.000000 10.000000 
eye_left_bone 0.000000 0.000000 0.000000 0.000000 0.000000 0.000000 10.000000 
eye_right_bone 0.000000 0.000000 0.000000 0.000000 0.000000 0.000000 10.000000 
L_forearm 0.000000 0.000000 0.000000 0.000000 0.000000 0.000000 10.000000 
L_front_hand 0.000000 0.000000 0.000000 0.000000 0.000000 0.000000 10.000000 
L_weapon_bone 0.000000 0.000000 0.000000 0.000000 0.000000 0.000000 10.000000 
L_front_hand01_01 0.000000 0.000000 0.000000 0.000000 0.000000 0.000000 10.000000 
L_front_hand02_01 0.000000 0.000000 0.000000 0.000000 0.000000 0.000000 10.000000 
L_front_hand03_01 0.000000 0.000000 0.000000 0.000000 0.000000 0.000000 10.000000 
L_front_hand01_02 0.000000 0.000000 0.000000 0.000000 0.000000 0.000000 10.000000 
L_front_hand02_02 0.000000 0.000000 0.000000 0.000000 0.000000 0.000000 10.000000 
L_front_hand03_02 0.000000 0.000000 0.000000 0.000000 0.000000 0.000000 10.000000 
R_forearm 0.000000 0.000000 0.000000 0.000000 0.000000 0.000000 10.000000 
R_front_hand 0.000000 0.000000 0.000000 0.000000 0.000000 0.000000 10.000000 
R_weapon_bone 0.000000 0.000000 0.000000 0.000000 0.000000 0.000000 10.000000 
R_front_hand01_01 0.000000 0.000000 0.000000 0.000000 0.000000 0.000000 10.000000 
R_front_hand02_01 0.000000 0.000000 0.000000 0.000000 0.000000 0.000000 10.000000 
R_front_hand03_01 0.000000 0.000000 0.000000 0.000000 0.000000 0.000000 10.000000 
R_front_hand01_02 0.000000 0.000000 0.000000 0.000000 0.000000 0.000000 10.000000 
R_front_hand02_02 0.000000 0.000000 0.000000 0.000000 0.000000 0.000000 10.000000 
R_front_hand03_02 0.000000 0.000000 0.000000 0.000000 0.000000 0.000000 10.000000 
null_rope01_connect 0.000000 0.000000 0.000000 0.000000 0.000000 0.000000 10.000000 
Rope1_Seg01 0.000000 0.000000 0.000000 0.000000 0.000000 0.000000 10.000000 
Rope1_Seg02 0.000000 0.000000 0.000000 0.000000 0.000000 0.000000 10.000000 
Rope1_Seg03 0.000000 0.000000 0.000000 0.000000 0.000000 0.000000 10.000000 
Rope1_Seg04 0.000000 0.000000 0.000000 0.000000 0.000000 0.000000 10.000000 
Rope1_Seg05 0.000000 0.000000 0.000000 0.000000 0.000000 0.000000 10.000000 
Rope1_Seg06 0.000000 0.000000 0.000000 0.000000 0.000000 0.000000 10.000000 
Rope1_Seg07 0.000000 0.000000 0.000000 0.000000 0.000000 0.000000 10.000000 
Rope1_Seg09 0.000000 0.000000 0.000000 0.000000 0.000000 0.000000 10.000000 
L_mid_hand01 0.000000 0.000000 0.000000 0.000000 0.000000 0.000000 10.000000 
L_mid_hand02 0.000000 0.000000 0.000000 0.000000 0.000000 0.000000 10.000000 
L_mid_hand03 0.000000 0.000000 0.000000 0.000000 0.000000 0.000000 10.000000 
null_rope02_connect 0.000000 0.000000 0.000000 0.000000 0.000000 0.000000 10.000000 
Rope2_Seg01 0.000000 0.000000 0.000000 0.000000 0.000000 0.000000 10.000000 
Rope2_Seg02 0.000000 0.000000 0.000000 0.000000 0.000000 0.000000 10.000000 
Rope2_Seg03 0.000000 0.000000 0.000000 0.000000 0.000000 0.000000 10.000000 
Rope2_Seg04 0.000000 0.000000 0.000000 0.000000 0.000000 0.000000 10.000000 
Rope2_Seg05 0.000000 0.000000 0.000000 0.000000 0.000000 0.000000 10.000000 
Rope2_Seg06 0.000000 0.000000 0.000000 0.000000 0.000000 0.000000 10.000000 
Rope2_Seg07 0.000000 0.000000 0.000000 0.000000 0.000000 0.000000 10.000000 
Rope2_Seg09 0.000000 0.000000 0.000000 0.000000 0.000000 0.000000 10.000000 
R_mid_hand01 0.000000 0.000000 0.000000 0.000000 0.000000 0.000000 10.000000 
R_mid_hand02 0.000000 0.000000 0.000000 0.000000 0.000000 0.000000 10.000000 
R_mid_hand03 0.000000 0.000000 0.000000 0.000000 0.000000 0.000000 10.000000 
spine02 0.000000 0.000000 0.000000 0.000000 0.000000 0.000000 10.000000 
spine03 0.000000 0.000000 0.000000 0.000000 0.000000 0.000000 10.000000 
pelvis 0.000000 0.000000 0.000000 0.000000 0.000000 0.000000 10.000000 
null_rope03_connect 0.000000 0.000000 0.000000 0.000000 0.000000 0.000000 10.000000 
null_rope04_connect 0.000000 0.000000 0.000000 0.000000 0.000000 0.000000 10.000000 
Rope3_Seg01 0.000000 0.000000 0.000000 0.000000 0.000000 0.000000 10.000000 
Rope3_Seg02 0.000000 0.000000 0.000000 0.000000 0.000000 0.000000 10.000000 
Rope3_Seg03 0.000000 0.000000 0.000000 0.000000 0.000000 0.000000 10.000000 
Rope3_Seg04 0.000000 0.000000 0.000000 0.000000 0.000000 0.000000 10.000000 
Rope3_Seg05 0.000000 0.000000 0.000000 0.000000 0.000000 0.000000 10.000000 
Rope3_Seg06 0.000000 0.000000 0.000000 0.000000 0.000000 0.000000 10.000000 
Rope3_Seg07 0.000000 0.000000 0.000000 0.000000 0.000000 0.000000 10.000000 
Rope3_Seg08 0.000000 0.000000 0.000000 0.000000 0.000000 0.000000 10.000000 
Rope3_Seg09 0.000000 0.000000 0.000000 0.000000 0.000000 0.000000 10.000000 
R_rear_hand01 0.000000 0.000000 0.000000 0.000000 0.000000 0.000000 10.000000 
R_rear_hand02 0.000000 0.000000 0.000000 0.000000 0.000000 0.000000 10.000000 
R_rear_hand03 0.000000 0.000000 0.000000 0.000000 0.000000 0.000000 10.000000 
Rope4_Seg01 0.000000 0.000000 0.000000 0.000000 0.000000 0.000000 10.000000 
Rope4_Seg02 0.000000 0.000000 0.000000 0.000000 0.000000 0.000000 10.000000 
Rope4_Seg03 0.000000 0.000000 0.000000 0.000000 0.000000 0.000000 10.000000 
Rope4_Seg04 0.000000 0.000000 0.000000 0.000000 0.000000 0.000000 10.000000 
Rope4_Seg05 0.000000 0.000000 0.000000 0.000000 0.000000 0.000000 10.000000 
Rope4_Seg06 0.000000 0.000000 0.000000 0.000000 0.000000 0.000000 10.000000 
Rope4_Seg07 0.000000 0.000000 0.000000 0.000000 0.000000 0.000000 10.000000 
Rope4_Seg08 0.000000 0.000000 0.000000 0.000000 0.000000 0.000000 10.000000 
Rope4_Seg09 0.000000 0.000000 0.000000 0.000000 0.000000 0.000000 10.000000 
L_rear_hand01 0.000000 0.000000 0.000000 0.000000 0.000000 0.000000 10.000000 
L_rear_hand02 0.000000 0.000000 0.000000 0.000000 0.000000 0.000000 10.000000 
L_rear_hand03 0.000000 0.000000 0.000000 0.000000 0.000000 0.000000 10.000000 
#Beginning of Data. Separated by tabs
#Fr	Tx	Ty	Tz	Rx	Ry	Rz	SF
[MASTER]
7 0.000000 0.000000 0.000000 0.001660 0.001660 0.001660 0.000000
8 0.000000 0.000000 0.000000 0.001660 0.001660 0.001660 0.000000
[root]
7 -16.502295 -52.344135 1492.498413 -90.894592 -18.178833 -92.292336 1493.507202
8 -16.502295 -49.013172 1490.113892 -88.515739 -17.626045 -92.242516 1491.010986
[chest]
7 -84.512650 -34.090519 0.000000 -6.383372 -0.198820 154.309341 91.129311
8 -84.512650 -34.090519 0.000000 -4.150247 -0.182329 153.190002 91.129311
[L_mid_tent01]
7 27.299232 22.178354 -249.918427 -1.730015 23.884068 67.398750 252.381348
8 27.299227 22.178392 -249.918442 -1.448329 26.432804 67.513359 252.381378
[R_mid_tent01]
7 23.228794 24.509907 226.238495 162.852814 -25.814909 81.134216 228.744751
8 23.228794 24.509907 226.238495 161.842850 -26.101652 83.323860 228.744751
[spine01]
7 -0.361383 -0.195265 0.000000 0.001900 0.001379 18.062517 0.410763
8 -0.361383 -0.195265 0.000000 0.001903 0.001375 18.272482 0.410763
[Bip01_Neck]
7 165.484543 71.581718 0.000119 176.643677 -1.657967 43.431911 180.302734
8 165.484543 71.581718 0.000119 176.643677 -1.657967 43.431911 180.302734
[L_humerus]
7 -13.983130 -135.272980 -120.471481 172.920105 6.728016 -85.281609 181.680161
8 -13.983130 -135.272980 -120.471481 172.763641 8.641940 -86.798515 181.680161
[R_humerus]
7 -13.983309 -135.273102 125.287651 -176.467361 -1.777337 -81.164886 184.909012
8 -13.983309 -135.273102 125.287651 -175.127777 0.548445 -83.671249 184.909012
[weapon_bone]
7 235.964890 -300.705902 0.000000 0.000000 -89.951546 -128.212341 382.234833
8 235.964890 -300.705902 0.000000 0.000000 -89.951546 -128.212341 382.234833
[Bip01_Head]
7 213.444275 185.715561 11.776929 4.962491 2.797846 -43.898750 283.173828
8 213.444260 185.715561 11.776930 4.962490 2.797845 -43.898743 283.173828
[eye_left_bone]
7 -24.626970 125.451866 -64.772606 0.000000 -90.000000 -99.840431 143.318359
8 -24.626970 125.451866 -64.772606 0.000000 -90.000000 -99.840431 143.318359
[eye_right_bone]
7 -24.626970 125.451866 64.327362 0.000000 -89.965736 80.156380 143.117676
8 -24.626970 125.451866 64.327362 0.000000 -89.965736 80.156380 143.117676
[L_forearm]
7 322.776093 0.000000 -0.000119 0.000423 -0.002309 -110.747574 322.776093
8 322.776093 0.000000 -0.000119 0.000437 -0.002306 -111.461258 322.776093
[L_front_hand]
7 241.149185 -0.042021 -3.300071 166.542526 -2.245767 -31.286198 241.171753
8 241.149185 -0.042021 -3.300071 165.192551 -2.175633 -30.321253 241.171753
[L_weapon_bone]
7 156.183838 0.000000 0.000000 0.000014 0.000007 0.000001 156.183838
8 156.183838 0.000000 0.000000 0.000014 0.000007 0.000001 156.183838
[L_front_hand01_01]
7 86.095154 20.947098 -0.655860 -0.366594 -0.477154 75.385574 88.609184
8 86.095154 20.947098 -0.655860 -0.366594 -0.477154 75.385574 88.609184
[L_front_hand02_01]
7 86.935165 -11.437475 24.513514 154.399796 -59.883835 -61.369587 91.046425
8 86.935165 -11.437475 24.513514 154.399796 -59.883835 -61.369587 91.046425
[L_front_hand03_01]
7 86.637497 -14.123976 -20.424902 -153.913879 58.118130 -62.702892 90.126129
8 86.637497 -14.123976 -20.424902 -153.913849 58.118122 -62.702866 90.126129
[L_front_hand01_02]
7 71.020905 -0.000179 0.000030 0.000334 -0.002323 -106.379684 71.020905
8 71.020905 -0.000179 0.000030 0.000334 -0.002323 -106.379684 71.020905
[L_front_hand02_02]
7 71.020927 -0.000119 0.000060 0.000334 -0.002323 -106.379684 71.020927
8 71.020927 -0.000119 0.000060 0.000334 -0.002323 -106.379684 71.020927
[L_front_hand03_02]
7 71.020905 -0.000060 0.000060 0.000334 -0.002323 -106.379684 71.020905
8 71.020905 -0.000060 0.000060 0.000334 -0.002323 -106.379684 71.020905
[R_forearm]
7 322.776428 -0.000060 0.000030 0.201690 0.066425 -108.782242 322.776428
8 322.776428 -0.000060 0.000030 0.201683 0.066447 -108.794418 322.776428
[R_front_hand]
7 238.847015 -0.006795 2.210259 13.143632 -10.231660 -30.885176 238.857239
8 238.847015 -0.006795 2.210259 14.248713 -10.302456 -29.743742 238.857239
[R_weapon_bone]
7 155.664093 0.002503 -0.000030 0.003487 0.001180 -90.988930 155.664078
8 155.664093 0.002503 -0.000030 0.003487 0.001180 -90.988930 155.664078
[R_front_hand01_01]
7 87.624611 14.231146 22.918642 -154.633514 -59.950634 61.746063 91.683487
8 87.624611 14.231146 22.918642 -154.633484 -59.950619 61.746037 91.683487
[R_front_hand02_01]
7 89.356956 14.367283 -19.491137 154.602661 58.302849 63.744389 92.579636
8 89.356956 14.367283 -19.491137 154.602661 58.302849 63.744389 92.579636
[R_front_hand03_01]
7 87.286232 -22.307278 -0.143439 0.162155 -0.423168 -75.767921 90.091743
8 87.286232 -22.307278 -0.143439 0.162155 -0.423168 -75.767921 90.091743
[R_front_hand01_02]
7 71.020905 0.000060 0.000119 0.002323 -0.000334 106.381714 71.020905
8 71.020905 0.000060 0.000119 0.002323 -0.000334 106.381706 71.020905
[R_front_hand02_02]
7 71.020844 -0.000030 -0.000119 0.002323 -0.000334 106.381714 71.020836
8 71.020844 -0.000030 -0.000119 0.002323 -0.000334 106.381706 71.020836
[R_front_hand03_02]
7 71.020905 0.000000 0.000030 0.002323 -0.000334 106.381714 71.020905
8 71.020905 0.000000 0.000030 0.002323 -0.000334 106.381706 71.020905
[null_rope01_connect]
7 328.732483 0.000000 -0.000238 -140.306244 -63.797985 -179.629013 328.732483
8 328.732483 0.000000 -0.000238 -138.544739 -63.492844 177.802902 328.732483
[Rope1_Seg01]
7 -0.000029 -0.000058 0.000116 115.352867 12.321619 -163.172241 0.000133
8 -0.000027 -0.000055 0.000110 119.026932 16.063551 -160.739944 0.000126
[Rope1_Seg02]
7 139.999863 -0.000179 0.000000 2.426185 -8.615150 4.850757 139.999863
8 139.999863 -0.000179 0.000000 1.207653 -8.486330 6.839821 139.999863
[Rope1_Seg03]
7 139.999924 0.000060 -0.000060 1.387601 -8.999872 5.674869 139.999924
8 139.999924 0.000060 -0.000060 0.479741 -7.875487 6.754374 139.999924
[Rope1_Seg04]
7 139.999924 -0.000060 -0.000119 -0.167544 -6.382353 6.498436 139.999924
8 139.999924 -0.000060 -0.000119 -0.545413 -4.912961 6.389455 139.999924
[Rope1_Seg05]
7 139.999832 0.000119 -0.000060 0.171679 -6.244928 4.604830 139.999832
8 139.999832 0.000119 -0.000060 0.042277 -4.712879 4.307324 139.999832
[Rope1_Seg06]
7 139.999954 0.000119 -0.000060 0.268716 -12.730531 3.719572 139.999954
8 139.999954 0.000119 -0.000060 0.488569 -8.463888 3.745147 139.999954
[Rope1_Seg07]
7 139.999985 0.000060 0.000000 -3.254064 -22.455902 4.779880 139.999985
8 139.999985 0.000060 0.000000 -0.564814 -14.836896 4.884573 139.999985
[Rope1_Seg09]
7 121.602913 0.000119 -0.000089 -89.793175 -1.359789 0.847147 121.602913
8 121.602913 0.000119 -0.000089 -89.793175 -1.359789 0.847147 121.602913
[L_mid_hand01]
7 103.859421 1.038730 8.195221 129.242493 -66.931091 -37.458961 104.187431
8 103.859421 1.038730 8.195221 126.075401 -65.098549 -33.991913 104.187431
[L_mid_hand02]
7 105.572853 -4.139662 -10.864139 -168.136536 43.236561 -72.353096 106.211075
8 105.572853 -4.139662 -10.864139 -166.035263 42.723965 -69.273842 106.211075
[L_mid_hand03]
7 104.641464 17.579376 -3.913581 -6.285013 17.719217 74.000862 106.179977
8 104.641464 17.579376 -3.913581 -7.014418 17.452778 71.596474 106.179977
[null_rope02_connect]
7 328.732849 0.000179 -0.000119 -118.467529 62.007286 30.429138 328.732849
8 328.732849 0.000179 -0.000119 -122.512459 59.386951 28.326191 328.732849
[Rope2_Seg01]
7 0.000095 0.000153 0.000018 -17.602602 12.041375 -36.077507 0.000181
8 0.000095 0.000153 0.000021 -145.061523 29.336964 -40.487534 0.000181
[Rope2_Seg02]
7 139.999741 -0.000060 -0.000119 -37.347511 1.246649 9.721968 139.999756
8 139.999741 -0.000060 -0.000119 32.945774 -0.646055 -6.030067 139.999756
[Rope2_Seg03]
7 140.000107 0.000030 0.000000 -17.773823 -5.931145 11.672009 140.000107
8 140.000107 0.000030 0.000000 24.241932 -3.135121 -4.346154 140.000107
[Rope2_Seg04]
7 139.999802 0.000000 -0.000060 -9.741610 -9.951777 12.220068 139.999802
8 139.999802 0.000000 -0.000060 14.777016 -3.987819 -2.671481 139.999802
[Rope2_Seg05]
7 139.999985 -0.000060 0.000119 4.225577 -13.279146 0.336665 139.999985
8 139.999985 -0.000060 0.000119 9.177693 -9.967522 -0.078209 139.999985
[Rope2_Seg06]
7 139.999893 -0.000030 -0.000119 4.175610 -12.814987 -2.056137 139.999893
8 139.999893 -0.000030 -0.000119 2.695798 -8.319401 1.759945 139.999893
[Rope2_Seg07]
7 139.999893 0.000060 -0.000060 1.028110 -9.209530 0.747499 139.999893
8 139.999893 0.000060 -0.000060 1.173644 -4.604920 1.013775 139.999893
[Rope2_Seg09]
7 121.338966 0.000089 -0.000060 33.793236 -1.359788 -0.847141 121.338966
8 121.338966 0.000089 -0.000060 33.793236 -1.359788 -0.847141 121.338966
[R_mid_hand01]
7 104.680779 11.144459 -10.335981 -16.562792 45.133286 69.965408 105.778534
8 104.680779 11.144459 -10.335981 -17.548510 44.833435 68.572052 105.778534
[R_mid_hand02]
7 104.070427 2.443552 8.231699 49.649654 -67.470848 38.658398 104.424065
8 104.070427 2.443552 8.231699 51.203640 -66.683899 36.975819 104.424065
[R_mid_hand03]
7 106.028137 -11.221827 -5.996406 -176.996689 15.531743 -76.202301 106.788818
8 106.028137 -11.221827 -5.996406 -176.709671 15.475002 -75.137619 106.788818
[spine02]
7 129.756927 0.001550 0.000119 -0.758445 -4.337848 3.074590 129.756927
8 129.756927 0.001550 0.000119 -0.701236 -4.367989 2.334969 129.756927
[spine03]
7 78.613937 0.084418 -4.898944 1.220513 4.758619 6.535696 78.766479
8 78.613937 0.084271 -4.898948 1.256178 4.782455 6.993724 78.766479
[pelvis]
7 169.435242 0.051022 0.000000 0.017666 0.071931 -6.054668 169.435257
8 169.435242 0.051022 0.000000 0.017586 0.086612 -5.123762 169.435257
[null_rope03_connect]
7 -1.257226 -2.466202 137.391083 -106.618011 -86.697731 -166.747223 137.418976
8 -1.257226 -2.466202 137.391083 -60.621243 -87.236717 145.865829 137.418976
[null_rope04_connect]
7 -1.259640 -2.480268 -137.844437 -106.618011 -86.697731 -166.747223 137.872513
8 -1.259640 -2.480268 -137.844437 -60.621243 -87.236717 145.865829 137.872513
[Rope3_Seg01]
7 -0.000036 0.000000 -0.000037 -128.874008 -27.707722 -85.590904 0.000051
8 -0.000035 0.000000 -0.000043 -126.726692 -19.023724 -91.931389 0.000056
[Rope3_Seg02]
7 139.999924 -0.000119 0.000060 1.786848 -12.040146 -26.336067 139.999924
8 139.999924 -0.000119 0.000060 6.032673 -19.627432 -34.180943 139.999924
[Rope3_Seg03]
7 139.999924 -0.000119 0.000119 0.461450 -12.049463 -22.368338 139.999924
8 139.999924 -0.000119 0.000119 3.720098 -13.727022 -19.816347 139.999924
[Rope3_Seg04]
7 139.999924 0.000119 0.000000 1.910909 -6.780992 -9.218594 139.999924
8 139.999924 0.000119 0.000000 3.018900 -5.695753 -6.115277 139.999924
[Rope3_Seg05]
7 139.999924 -0.000238 0.000060 -16.067867 -1.204902 -10.227071 139.999924
8 139.999924 -0.000238 0.000060 -2.096106 -2.821721 -5.941485 139.999924
[Rope3_Seg06]
7 139.999893 -0.000119 -0.000060 -83.872383 8.726210 -22.139458 139.999893
8 139.999893 -0.000119 -0.000060 -20.823151 -2.611142 -11.025707 139.999893
[Rope3_Seg07]
7 139.999771 0.000060 -0.000119 -21.257469 28.957035 8.143208 139.999771
8 139.999771 0.000060 -0.000119 -113.333694 4.288820 -24.296362 139.999771
[Rope3_Seg08]
7 139.999985 -0.000060 0.000000 -2.080241 11.314045 8.093973 139.999985
8 139.999985 -0.000060 0.000000 -9.886026 15.376114 9.312960 139.999985
[Rope3_Seg09]
7 90.185997 -0.000179 -0.000060 89.793228 -1.359877 -0.847183 90.185997
8 90.185997 -0.000179 -0.000060 89.793228 -1.359877 -0.847183 90.185997
[R_rear_hand01]
7 103.366196 -6.073594 -10.757982 -177.501556 24.545221 -73.407959 104.101845
8 103.366196 -6.073594 -10.757982 -176.918228 24.486242 -72.002144 104.101845
[R_rear_hand02]
7 100.509819 12.039542 -7.992327 -13.210586 36.766556 71.607773 101.543350
8 100.509819 12.039542 -7.992327 -14.131634 36.459908 70.059998 101.543350
[R_rear_hand03]
7 101.539970 5.215704 5.435467 71.918968 -71.383453 21.055584 101.819031
8 101.539970 5.215704 5.435467 73.022980 -70.158020 19.886856 101.819031
[Rope4_Seg01]
7 -0.000036 0.000000 -0.000037 68.904045 -42.817154 -125.939659 0.000051
8 -0.000035 0.000000 -0.000043 63.660969 -41.852417 -118.916985 0.000056
[Rope4_Seg02]
7 139.999985 0.000060 0.000119 8.187490 -26.482304 -6.181616 139.999985
8 139.999985 0.000060 0.000119 3.810199 -28.504156 -14.475889 139.999985
[Rope4_Seg03]
7 139.999924 0.000000 -0.000238 47.608852 -28.435537 0.264699 139.999924
8 139.999924 0.000000 -0.000238 12.624858 -24.361835 -9.883643 139.999924
[Rope4_Seg04]
7 139.999985 0.000000 0.000119 59.369118 -12.466122 11.639053 139.999985
8 139.999985 0.000000 0.000119 120.276421 -11.473536 -1.826362 139.999985
[Rope4_Seg05]
7 139.999802 -0.000060 -0.000119 41.083233 -3.513856 23.510815 139.999802
8 139.999802 -0.000060 -0.000119 50.854992 0.687146 13.958163 139.999802
[Rope4_Seg06]
7 139.999924 0.000000 0.000060 13.360271 10.879862 18.687559 139.999924
8 139.999924 0.000000 0.000060 12.355765 17.353024 16.180508 139.999924
[Rope4_Seg07]
7 139.999802 0.000000 0.000000 2.757971 7.441646 7.245097 139.999802
8 139.999802 0.000000 0.000000 2.666865 14.564122 8.748554 139.999802
[Rope4_Seg08]
7 139.999924 0.000000 0.000119 -0.543373 4.132120 3.694426 139.999924
8 139.999924 0.000000 0.000119 -0.911364 7.536187 3.982070 139.999924
[Rope4_Seg09]
7 90.185791 0.000060 0.000060 -135.617828 2.228885 0.850567 90.185791
8 90.185791 0.000060 0.000060 -135.617828 2.228885 0.850567 90.185791
[L_rear_hand01]
7 101.696655 -8.392275 -7.654577 -14.225124 -36.428970 110.098541 102.329041
8 101.696655 -8.392275 -7.654577 -17.565516 -35.113850 115.806488 102.329041
[L_rear_hand02]
7 102.726799 -1.568258 5.773216 73.119118 70.038193 160.218079 102.900848
8 102.726799 -1.568258 5.773216 76.237793 65.389854 163.579773 102.900848
[L_rear_hand03]
7 104.552910 9.721220 -10.420293 -176.860001 -24.478331 -108.136040 105.519653
8 104.552910 9.721220 -10.420293 -174.689285 -24.125307 -113.408821 105.519653
